<?xml version="1.0" ?><!DOCTYPE svg  PUBLIC '-//W3C//DTD SVG 1.1//EN'  'http://www.w3.org/Graphics/SVG/1.1/DTD/svg11.dtd'><svg height="512px" style="enable-background:new 0 0 512 512;" version="1.1" viewBox="0 0 512 512" width="512px" xml:space="preserve" xmlns="http://www.w3.org/2000/svg" xmlns:xlink="http://www.w3.org/1999/xlink"><g id="home_x2C__house_x2C__lock_x2C__password"><g><radialGradient cx="255.9893" cy="255.2725" gradientTransform="matrix(6.8138 0 0 6.8138 -1488.3801 -1283.6067)" gradientUnits="userSpaceOnUse" id="SVGID_1_" r="24.8635"><stop offset="0" style="stop-color:#000000"/><stop offset="1" style="stop-color:#3D4148"/></radialGradient><polygon points="494.364,435.265 494.591,476.275     17.399,476.275 17.399,475.182 17.173,435.265   " style="fill-rule:evenodd;clip-rule:evenodd;fill:url(#SVGID_1_);"/><g><linearGradient gradientUnits="userSpaceOnUse" id="SVGID_2_" x1="16" x2="496" y1="235.8843" y2="235.8843"><stop offset="0" style="stop-color:#8A9AA9"/><stop offset="0.3214" style="stop-color:#C3D2DB"/><stop offset="0.699" style="stop-color:#C3D2DB"/><stop offset="1" style="stop-color:#8A9AA9"/></linearGradient><path d="M496,286.5h-59.996l0.858,149.544H75.916V286.5H16     L255.96,35.725C381.313,166.677,341.467,124.98,496,286.5L496,286.5z" style="fill-rule:evenodd;clip-rule:evenodd;fill:url(#SVGID_2_);"/><radialGradient cx="278.416" cy="211.7378" gradientTransform="matrix(6.8138 0 0 6.8138 -1488.3801 -1283.6067)" gradientUnits="userSpaceOnUse" id="SVGID_3_" r="7.2202"><stop offset="0" style="stop-color:#000000"/><stop offset="1" style="stop-color:#3D4148"/></radialGradient><polygon points="382.241,94.784 435.146,94.784      435.146,223.479 382.241,168.234    " style="fill-rule:evenodd;clip-rule:evenodd;fill:url(#SVGID_3_);"/><g><radialGradient cx="255.9985" cy="239.4995" gradientTransform="matrix(6.8138 0 0 6.8138 -1488.3801 -1283.6067)" gradientUnits="userSpaceOnUse" id="SVGID_4_" r="3.2681"><stop offset="0" style="stop-color:#000000"/><stop offset="1" style="stop-color:#3D4148"/></radialGradient><path d="M240.986,335.229c0,5.876,4.071,11.208,8.813,13.356      v27.367c5.205,0.117,6.813-0.079,11.958,0.057l0.059-27.424c4.743-2.148,9.079-7.55,9.079-13.356      C270.895,315.798,240.986,315.602,240.986,335.229L240.986,335.229z" style="fill-rule:evenodd;clip-rule:evenodd;fill:url(#SVGID_4_);"/><radialGradient cx="255.9736" cy="232.9824" gradientTransform="matrix(6.8138 0 0 6.8138 -1488.3801 -1283.6067)" gradientUnits="userSpaceOnUse" id="SVGID_5_" r="12.3726"><stop offset="0" style="stop-color:#000000"/><stop offset="1" style="stop-color:#3D4148"/></radialGradient><path d="M329.896,377.607l0.067-13.948l0.07-10.146h-0.07      h-26.231v-12.006h26.231h0.07v-12.293l0,0h-26.302v-12.007h26.302v-17.892c0-8.814-6.339-15.893-14.817-17.291v-31.3      c0-22.234-17.881-40.115-40.119-40.115h-38.645c-22.229,0-40.182,17.881-40.182,40.115v31.3      c-8.35,1.676-14.758,8.675-14.758,17.291v80.56c0,9.553,8.419,17.287,18.633,17.287h111.601c9.809,0,18.149-5.932,18.149-15.483      V377.607z M261.815,348.585l-0.059,27.424c-5.146-0.136-6.753,0.061-11.958-0.057v-27.367c-4.741-2.148-8.813-7.48-8.813-13.356      c0-19.627,29.908-19.431,29.908,0C270.895,341.035,266.559,346.437,261.815,348.585L261.815,348.585z M294.467,281.63h-77.229      c0-6.604-0.413-24.23,0.385-29.168c2.08-13.685,14.502-23.028,29.248-23.028h18.949c16.164,0,28.646,11.475,28.646,27.232      V281.63z" style="fill-rule:evenodd;clip-rule:evenodd;fill:url(#SVGID_5_);"/><radialGradient cx="264.9365" cy="239.3848" gradientTransform="matrix(6.8138 0 0 6.8138 -1488.3801 -1283.6067)" gradientUnits="userSpaceOnUse" id="SVGID_6_" r="1.4968"><stop offset="0" style="stop-color:#000000"/><stop offset="1" style="stop-color:#3D4148"/></radialGradient><rect height="12.006" style="fill-rule:evenodd;clip-rule:evenodd;fill:url(#SVGID_6_);" width="26.231" x="303.731" y="341.508"/><radialGradient cx="264.9414" cy="235.8184" gradientTransform="matrix(6.8138 0 0 6.8138 -1488.3801 -1283.6067)" gradientUnits="userSpaceOnUse" id="SVGID_7_" r="1.5006"><stop offset="0" style="stop-color:#000000"/><stop offset="1" style="stop-color:#3D4148"/></radialGradient><rect height="12.007" style="fill-rule:evenodd;clip-rule:evenodd;fill:url(#SVGID_7_);" width="26.302" x="303.731" y="317.208"/><linearGradient gradientUnits="userSpaceOnUse" id="SVGID_8_" x1="181.5127" x2="330.0332" y1="303.8867" y2="303.8867"><stop offset="0" style="stop-color:#D59632"/><stop offset="0.1301" style="stop-color:#DFB434"/><stop offset="0.2959" style="stop-color:#EEDF36"/><stop offset="0.8265" style="stop-color:#EEDF36"/><stop offset="0.9038" style="stop-color:#EDDD36"/><stop offset="0.9351" style="stop-color:#EBD636"/><stop offset="0.9581" style="stop-color:#E7CA35"/><stop offset="0.977" style="stop-color:#E1B834"/><stop offset="0.9932" style="stop-color:#D9A233"/><stop offset="1" style="stop-color:#D59632"/></linearGradient><path d="M249.799,375.952v-27.367      c-4.741-2.148-8.813-7.48-8.813-13.356c0-19.627,29.908-19.431,29.908,0c0,5.807-4.336,11.208-9.079,13.356l-0.059,27.424      C256.611,375.873,255.004,376.069,249.799,375.952L249.799,375.952z M217.238,281.63h77.229v-24.964      c0-15.758-12.482-27.232-28.646-27.232h-18.949c-14.746,0-27.168,9.344-29.248,23.028      C216.825,257.399,217.238,275.026,217.238,281.63L217.238,281.63z M196.271,282.025v-31.3c0-22.234,17.952-40.115,40.182-40.115      h38.645c22.238,0,40.119,17.881,40.119,40.115v31.3c8.479,1.398,14.817,8.477,14.817,17.291v17.892h-26.302v12.007h26.302      v12.293h-26.302v12.006h26.302l-0.138,12.088l-26.164,0.136l-0.139,11.87h26.303v4.072c0,9.552-8.341,15.483-18.149,15.483      H200.146c-10.214,0-18.633-7.734-18.633-17.287v-80.56C181.513,290.7,187.921,283.701,196.271,282.025L196.271,282.025z       M330.033,317.208" style="fill-rule:evenodd;clip-rule:evenodd;fill:url(#SVGID_8_);"/><radialGradient cx="255.9692" cy="224.5332" gradientTransform="matrix(6.8138 0 0 6.8138 -1488.3801 -1283.6067)" gradientUnits="userSpaceOnUse" id="SVGID_9_" r="7.1986"><stop offset="0" style="stop-color:#000000"/><stop offset="1" style="stop-color:#3D4148"/></radialGradient><path d="M236.452,210.61      c-22.229,0-40.182,17.881-40.182,40.115v31.3h20.968v-0.396v-0.334c0-6.804-0.344-23.965,0.385-28.834      c2.08-13.685,14.502-23.028,29.248-23.028h7.867h11.082c16.164,0,28.646,11.475,28.646,27.232v24.964l0,0v0.396h20.749v-31.3      c0-22.234-17.881-40.115-40.119-40.115h-20.358H236.452z" style="fill-rule:evenodd;clip-rule:evenodd;fill:url(#SVGID_9_);"/></g><linearGradient gradientUnits="userSpaceOnUse" id="SVGID_10_" x1="16" x2="496" y1="161.1123" y2="161.1123"><stop offset="0" style="stop-color:#610000"/><stop offset="0.0242" style="stop-color:#790501"/><stop offset="0.0583" style="stop-color:#940A02"/><stop offset="0.0975" style="stop-color:#AA0E03"/><stop offset="0.1433" style="stop-color:#BB1103"/><stop offset="0.1999" style="stop-color:#C61304"/><stop offset="0.2794" style="stop-color:#CD1504"/><stop offset="0.5" style="stop-color:#CF1504"/><stop offset="0.7297" style="stop-color:#CD1504"/><stop offset="0.8124" style="stop-color:#C61304"/><stop offset="0.8714" style="stop-color:#BB1003"/><stop offset="0.9191" style="stop-color:#AA0C02"/><stop offset="0.9595" style="stop-color:#940701"/><stop offset="0.9951" style="stop-color:#790100"/><stop offset="1" style="stop-color:#750000"/></linearGradient><polygon points="255.96,35.725 16,286.5 75.916,286.5      256.513,100.236 436.004,286.5 496,286.5    " style="fill-rule:evenodd;clip-rule:evenodd;fill:url(#SVGID_10_);"/></g></g></g><g id="Layer_1"/></svg>