<?xml version="1.0" ?><!DOCTYPE svg  PUBLIC '-//W3C//DTD SVG 1.0//EN'  'http://www.w3.org/TR/2001/REC-SVG-20010904/DTD/svg10.dtd'><svg enable-background="new 0 0 200 200" height="200px" id="Layer_1" version="1.0" viewBox="0 0 200 200" width="200px" xml:space="preserve" xmlns="http://www.w3.org/2000/svg" xmlns:xlink="http://www.w3.org/1999/xlink"><g id="New_Symbol"/><g id="New_Symbol_1_"/><g id="New_Symbol_1"/><g id="New_Symbol_9_2_"/><g id="New_Symbol_7"/><g id="New_Symbol_9_1_"/><g id="New_Symbol_9"/><g id="Nuevo_símbolo"/><g id="New_Symbol_10"/><g id="New_Symbol_12"/><g id="New_Symbol_14"/><g id="New_Symbol_15"/><g id="New_Symbol_16"/><g id="New_Symbol_17_1_"/><g id="New_Symbol_18"/><g id="New_Symbol_19"/><g id="New_Symbol_17"/><g><path d="M61.2,36.6c-8,0-14.5,6.5-14.5,14.5s6.5,14.5,14.5,14.5S75.6,59,75.6,51.1S69.1,36.6,61.2,36.6z M49.7,51.1   c0-6.3,5.1-11.5,11.5-11.5c2.9,0,5.6,1.1,7.6,2.9l-10.6,6.5c-2.6,1.6-3.4,5-1.8,7.6l3.5,5.7C54.2,61.8,49.7,57,49.7,51.1z    M63.3,62.3l-4.4-7.2c-0.7-1.2-0.4-2.8,0.8-3.5l11-6.8c1.2,1.8,1.8,3.9,1.8,6.2C72.6,56.6,68.6,61.3,63.3,62.3z" fill="#1D1D1B"/><path d="M169.9,135.8l-8.4,5.2l-2.2-3.6l16.1-9.9l-8.6-14.1l-16.1,9.9L130,89.9l18.3-11.2c1.3-0.8,2.1-2,2.5-3.4   c0.3-1.4,0.1-2.9-0.7-4.2L118,18.8c-0.8-1.3-2-2.1-3.4-2.5c-1.4-0.3-2.9-0.1-4.2,0.7l-9.3,5.8c-0.9-2.3-3-3.8-5.6-3.8h-68   c-3.3,0-6.5,2.5-6.5,5.8v68c0,3.3,3.2,6.2,6.5,6.2H51v85h31v-18H71v-5h21v-18H71V99h11.3l6.2,10c1.6,2.6,5,3.4,7.6,1.8l18.3-11.3   l40.1,65.2l24-14.8L169.9,135.8z M101,46.8c6,1,9.5,5.7,9.5,11.3S107,68.3,101,69.3V46.8z M68,96v50h21v12H68v11h11v12H54V96H27.5   c-1.7,0-3.5-1.5-3.5-3.2v-68c0-1.7,1.8-2.8,3.5-2.8h68c1.7,0,2.5,1.2,2.5,2.8v68c0,1.7-0.8,3.2-2.5,3.2H68z M115.4,95.3l-20.8,12.8   c-1.2,0.7-2.8,0.5-3.5-0.7L85.8,99h9.7c3.3,0,5.5-2.9,5.5-6.2V72.4c8-1,12.5-7,12.5-14.3S109,44.7,101,43.8V26l10.7-6.4   c0.6-0.4,1.4-0.5,2-0.3c0.7,0.2,1.3,0.6,1.6,1.1l32.1,52.2c0.4,0.6,0.5,1.3,0.3,1.9c-0.2,0.7-0.6,1.2-1.1,1.6l-20.8,12.8l23.7,38.6   l16.1-9.9l5.5,8.9l-16.1,9.9l5.3,8.7l8.4-5.2l5.5,8.9l-18.9,11.6L115.4,95.3z" fill="#1D1D1B"/></g></svg>