<?xml version="1.0" ?><!DOCTYPE svg  PUBLIC '-//W3C//DTD SVG 1.1//EN'  'http://www.w3.org/Graphics/SVG/1.1/DTD/svg11.dtd'><svg enable-background="new 0 0 300 300" height="300px" id="Layer_1" version="1.1" viewBox="0 0 300 300" width="300px" xml:space="preserve" xmlns="http://www.w3.org/2000/svg" xmlns:xlink="http://www.w3.org/1999/xlink"><g><path d="M151.338,15.399c-74.557,0-134.997,60.441-134.997,134.999c0,74.554,60.439,135.001,134.997,135.001   c74.556,0,135.004-60.447,135.004-135.001C286.342,75.84,225.894,15.399,151.338,15.399z M151.338,266.309   c-64.013,0-115.908-51.896-115.908-115.911S87.325,34.491,151.338,34.491c64.016,0,115.909,51.893,115.909,115.907   S215.354,266.309,151.338,266.309z" fill="#D77E47"/><circle cx="151.341" cy="150.398" fill="#D77E47" r="104.428"/><polygon fill="#FFFFFF" points="217.472,172.888 173.829,172.888 173.829,216.526 128.844,216.526 128.844,172.888 85.209,172.888    85.209,127.905 128.844,127.905 128.844,84.268 173.829,84.268 173.829,127.905 217.472,127.905  "/></g></svg>