<svg height="512pt" viewBox="0 0 512 512" width="512pt" xmlns="http://www.w3.org/2000/svg"><path d="m256 31c-124.199219 0-225 100.800781-225 225s100.800781 225 225 225 225-100.800781 225-225-100.800781-225-225-225zm0 420c-107.402344 0-195-87.601562-195-195 0-107.402344 87.597656-195 195-195s195 87.597656 195 195c0 107.398438-87.597656 195-195 195zm0 0" fill="#4a696f"/><path d="m256 121c-74.398438 0-135 60.597656-135 135 0 74.398438 60.601562 135 135 135s135-60.601562 135-135c0-74.402344-60.601562-135-135-135zm0 240c-57.898438 0-105-47.101562-105-105s47.101562-105 105-105 105 47.101562 105 105-47.101562 105-105 105zm0 0" fill="#4a696f"/><path d="m391 256c0 74.398438-60.601562 135-135 135v-30c57.898438 0 105-47.101562 105-105s-47.101562-105-105-105v-30c74.398438 0 135 60.597656 135 135zm0 0" fill="#3e5959"/><path d="m481 256c0 124.199219-100.800781 225-225 225v-30c107.402344 0 195-87.601562 195-195 0-107.402344-87.597656-195-195-195v-30c124.199219 0 225 100.800781 225 225zm0 0" fill="#3e5959"/><g fill="#4a696f"><path d="m241 0h30v181h-30zm0 0"/><path d="m241 331h30v181h-30zm0 0"/><path d="m0 241h181v30h-181zm0 0"/></g><path d="m331 241h181v30h-181zm0 0" fill="#3e5959"/><path d="m256 211c-24.902344 0-45 20.097656-45 45 0 24.898438 20.097656 45 45 45s45-20.101562 45-45c0-24.902344-20.097656-45-45-45zm0 0" fill="#ff7816"/><path d="m301 256c0 24.898438-20.097656 45-45 45v-90c24.902344 0 45 20.097656 45 45zm0 0" fill="#ff4b00"/><path d="m256 0h15v181h-15zm0 0" fill="#3e5959"/><path d="m256 331h15v181h-15zm0 0" fill="#3e5959"/></svg>