<?xml version="1.0" encoding="iso-8859-1"?>
<!-- Generator: Adobe Illustrator 19.0.0, SVG Export Plug-In . SVG Version: 6.00 Build 0)  -->
<svg xmlns="http://www.w3.org/2000/svg" xmlns:xlink="http://www.w3.org/1999/xlink" version="1.1" id="Layer_1" x="0px" y="0px" viewBox="0 0 512 512" style="enable-background:new 0 0 512 512;" xml:space="preserve" width="512px" height="512px">
<g>
	<g>
		<path d="M503.467,0h-51.2c-4.71,0-8.533,3.823-8.533,8.533v18.261c-94.643,14.967-181.111,55.74-250.701,118.272h-47.966    c-4.71,0-8.533,3.823-8.533,8.533v48.529c-57.719,67.942-95.556,151.27-109.747,241.604H8.533c-4.71,0-8.533,3.823-8.533,8.533    v51.2C0,508.177,3.823,512,8.533,512h51.2c4.71,0,8.533-3.823,8.533-8.533v-51.2c0-4.71-3.823-8.533-8.533-8.533H44.066    c14.02-86.135,50.304-165.547,105.344-230.4h46.857c4.71,0,8.533-3.823,8.533-8.533v-47.36    c66.415-59.554,148.762-98.594,238.933-113.365v15.659c0,4.71,3.823,8.533,8.533,8.533h51.2c4.71,0,8.533-3.823,8.533-8.533v-51.2    C512,3.823,508.177,0,503.467,0z" fill="#006DF0"/>
	</g>
</g>
<g>
</g>
<g>
</g>
<g>
</g>
<g>
</g>
<g>
</g>
<g>
</g>
<g>
</g>
<g>
</g>
<g>
</g>
<g>
</g>
<g>
</g>
<g>
</g>
<g>
</g>
<g>
</g>
<g>
</g>
</svg>
