<?xml version="1.0" ?><svg height="400px" version="1.1" viewBox="0 0 400 400" width="400px" xmlns="http://www.w3.org/2000/svg" xmlns:xlink="http://www.w3.org/1999/xlink"><title/><desc/><defs><path d="M70.5,322.2147 C70.5,322.2147 123.196491,290.9417 131.480762,276.592921 C139.765033,262.244143 134.848779,243.896431 120.5,235.612159 C106.151221,227.327888 87.8035091,232.244143 79.5192379,246.592921 C71.2349666,260.9417 70.5,322.2147 70.5,322.2147 L70.5,322.2147 Z" id="path-1"/><filter filterUnits="objectBoundingBox" height="200%" id="filter-2" width="200%" x="-50%" y="-50%"><feOffset dx="0" dy="2" in="SourceAlpha" result="shadowOffsetOuter1"/><feGaussianBlur in="shadowOffsetOuter1" result="shadowBlurOuter1" stdDeviation="2"/><feColorMatrix in="shadowBlurOuter1" type="matrix" values="0 0 0 0 0   0 0 0 0 0   0 0 0 0 0  0 0 0 0.5 0"/></filter><path d="M133.576923,212.962264 C186.189112,243.337925 190.762794,333.91343 190.762794,333.91343 C221.138456,281.301241 203.112189,214.026296 150.5,183.650635 C97.8878114,153.274974 30.6128668,171.301241 0.237205584,223.91343 C0.237205584,223.91343 80.9647345,182.586603 133.576923,212.962264 L133.576923,212.962264 Z" id="path-3"/><filter filterUnits="objectBoundingBox" height="200%" id="filter-4" width="200%" x="-50%" y="-50%"><feOffset dx="0" dy="2" in="SourceAlpha" result="shadowOffsetOuter1"/><feGaussianBlur in="shadowOffsetOuter1" result="shadowBlurOuter1" stdDeviation="2"/><feColorMatrix in="shadowBlurOuter1" type="matrix" values="0 0 0 0 0   0 0 0 0 0   0 0 0 0 0  0 0 0 0.5 0"/></filter><path d="M95.5,278.91343 C112.820508,288.91343 183.278744,246.876185 227.461524,170.349365 C271.644304,93.8225452 272.820508,11.7853003 255.5,1.7853003 C238.179492,-8.2146997 167.721256,33.8225452 123.538476,110.349365 C79.3556958,186.876185 78.1794919,268.91343 95.5,278.91343 L95.5,278.91343 Z" id="path-5"/><filter filterUnits="objectBoundingBox" height="200%" id="filter-6" width="200%" x="-50%" y="-50%"><feOffset dx="0" dy="2" in="SourceAlpha" result="shadowOffsetOuter1"/><feGaussianBlur in="shadowOffsetOuter1" result="shadowBlurOuter1" stdDeviation="2"/><feColorMatrix in="shadowBlurOuter1" type="matrix" values="0 0 0 0 0   0 0 0 0 0   0 0 0 0 0  0 0 0 0.5 0"/></filter><path d="M162.552381,248.344107 C132.71956,273.357333 105.403966,284.631487 95.4759763,278.899559 C85.5479867,273.167632 81.6538932,243.874557 88.3995716,205.531963 L162.552381,248.344107 L162.552381,248.344107 Z" id="path-7"/><filter filterUnits="objectBoundingBox" height="200%" id="filter-8" width="200%" x="-50%" y="-50%"><feOffset dx="0" dy="2" in="SourceAlpha" result="shadowOffsetOuter1"/><feGaussianBlur in="shadowOffsetOuter1" result="shadowBlurOuter1" stdDeviation="2"/><feColorMatrix in="shadowBlurOuter1" type="matrix" values="0 0 0 0 0   0 0 0 0 0   0 0 0 0 0  0 0 0 0.5 0"/></filter><path d="M262.450113,75.0799824 C269.195792,36.7373887 265.301698,7.44431344 255.373709,1.71238599 C245.445719,-4.01954147 218.130125,7.25461233 188.297304,32.267838 L262.450113,75.0799824 L262.450113,75.0799824 L262.450113,75.0799824 Z" id="path-9"/><filter filterUnits="objectBoundingBox" height="200%" id="filter-10" width="200%" x="-50%" y="-50%"><feOffset dx="0" dy="1" in="SourceAlpha" result="shadowOffsetOuter1"/><feGaussianBlur in="shadowOffsetOuter1" result="shadowBlurOuter1" stdDeviation="2"/><feColorMatrix in="shadowBlurOuter1" type="matrix" values="0 0 0 0 0   0 0 0 0 0   0 0 0 0 0  0 0 0 0.5 0"/></filter><path d="M155.5,174.990381 C174.631705,186.036076 199.095321,179.48107 210.141016,160.349365 C221.186711,141.21766 214.631705,116.754044 195.5,105.708349 C176.368295,94.6626538 151.904679,101.21766 140.858984,120.349365 C129.813289,139.48107 136.368295,163.944686 155.5,174.990381 L155.5,174.990381 Z" id="path-11"/><filter filterUnits="objectBoundingBox" height="200%" id="filter-12" width="200%" x="-50%" y="-50%"><feOffset dx="0" dy="2" in="SourceAlpha" result="shadowOffsetOuter1"/><feGaussianBlur in="shadowOffsetOuter1" result="shadowBlurOuter1" stdDeviation="2"/><feColorMatrix in="shadowBlurOuter1" type="matrix" values="0 0 0 0 0   0 0 0 0 0   0 0 0 0 0  0 0 0 0.5 0"/></filter></defs><g fill="none" fill-rule="evenodd" id="Page-1" stroke="none" stroke-width="1"><g id="rocket"><path d="M200,400 C310.45695,400 400,310.45695 400,200 C400,89.54305 310.45695,0 200,0 C89.54305,0 0,89.54305 0,200 C0,310.45695 89.54305,400 200,400 Z" fill="#82A3A1" id="background"/><g id="Group-15" transform="translate(171.690915, 195.732546) rotate(-345.000000) translate(-171.690915, -195.732546) translate(38.690915, 28.732546)"><g id="Oval-6"><use fill="black" fill-opacity="1" filter="url(#filter-2)" xlink:href="#path-1"/><use fill="#EE7674" fill-rule="evenodd" xlink:href="#path-1"/></g><path d="M78.5,308.358293 C78.5,308.358293 113.720046,287.355384 119.270508,277.741702 C124.82097,268.12802 121.565852,255.857439 112,250.334591 C102.434148,244.811744 90.1799537,248.12802 84.6294919,257.741702 C79.0790302,267.355384 78.5,308.358293 78.5,308.358293 L78.5,308.358293 Z" fill="#D36160" id="Oval-6"/><g id="Oval-5"><use fill="black" fill-opacity="1" filter="url(#filter-4)" xlink:href="#path-3"/><use fill="#535C76" fill-rule="evenodd" xlink:href="#path-3"/></g><g id="Oval-2"><use fill="black" fill-opacity="1" filter="url(#filter-6)" xlink:href="#path-5"/><use fill="#F2ECD2" fill-rule="evenodd" xlink:href="#path-5"/></g><g id="Combined-Shape"><use fill="black" fill-opacity="1" filter="url(#filter-8)" xlink:href="#path-7"/><use fill="#535C76" fill-rule="evenodd" xlink:href="#path-7"/></g><g id="Combined-Shape"><use fill="black" fill-opacity="1" filter="url(#filter-10)" xlink:href="#path-9"/><use fill="#535C76" fill-rule="evenodd" xlink:href="#path-9"/></g><g id="Oval-4"><use fill="black" fill-opacity="1" filter="url(#filter-12)" xlink:href="#path-11"/><use fill="#545E75" fill-rule="evenodd" xlink:href="#path-11"/></g></g></g></g></svg>