<?xml version="1.0" encoding="iso-8859-1"?>
<!-- Generator: Adobe Illustrator 19.0.0, SVG Export Plug-In . SVG Version: 6.00 Build 0)  -->
<svg version="1.1" id="Layer_1" xmlns="http://www.w3.org/2000/svg" xmlns:xlink="http://www.w3.org/1999/xlink" x="0px" y="0px"
	 viewBox="0 0 512 512" style="enable-background:new 0 0 512 512;" xml:space="preserve">
<polygon style="fill:#365FA8;" points="486.626,370.972 486.626,347.167 25.374,347.167 25.374,370.972 256,504.122 "/>
<polygon style="fill:#4070C9;" points="486.626,347.167 256,214.016 25.374,347.167 256,480.317 "/>
<polygon style="fill:#A75450;" points="486.626,270.528 486.626,246.723 25.374,246.723 25.374,270.528 256,403.679 "/>
<polygon style="fill:#E06D68;" points="486.626,246.723 256,113.572 25.374,246.723 256,379.874 "/>
<polygon style="fill:#D2AD47;" points="486.626,164.833 486.626,141.028 25.374,141.028 25.374,164.833 256,297.984 "/>
<polygon style="fill:#F0C650;" points="486.626,141.028 256,7.878 25.374,141.028 256,274.179 "/>
<path d="M494.503,164.833v-23.805c0-2.815-1.502-5.415-3.939-6.822L259.939,1.056c-2.437-1.407-5.441-1.407-7.878,0L21.435,134.206
	c-2.437,1.407-3.939,4.008-3.939,6.822v23.805c0,2.815,1.502,5.415,3.939,6.822l59.104,34.124l-59.104,34.124
	c-2.437,1.407-3.939,4.007-3.939,6.822v23.805c0,2.815,1.502,5.415,3.939,6.822l54.556,31.498l-54.556,31.498
	c-2.437,1.407-3.939,4.008-3.939,6.822v23.805c0,2.815,1.502,5.415,3.939,6.822l230.626,133.149C253.28,511.648,254.64,512,256,512
	c1.36,0,2.72-0.352,3.939-1.056l230.626-133.151c2.437-1.407,3.939-4.007,3.939-6.822v-23.805c0-2.815-1.502-5.415-3.939-6.822
	l-54.556-31.498l54.556-31.498c2.437-1.407,3.939-4.007,3.939-6.822v-23.805c0-2.815-1.502-5.415-3.939-6.822l-59.104-34.124
	l59.104-34.124C493.002,170.248,494.503,167.647,494.503,164.833z M256,16.974l214.871,124.055L256,265.083L41.129,141.028
	L256,16.974z M478.748,366.424L256,495.026L33.252,366.424v-5.612l218.809,126.328c1.218,0.704,2.579,1.056,3.939,1.056
	c1.36,0,2.72-0.352,3.939-1.056L478.748,360.81V366.424z M470.871,347.167L256,471.221L41.129,347.167l50.616-29.224l160.316,92.558
	c1.218,0.704,2.579,1.056,3.939,1.056s2.72-0.352,3.939-1.056l160.316-92.558L470.871,347.167z M478.748,265.979L256,394.583
	L33.252,265.979v-5.612l218.809,126.33c1.218,0.704,2.579,1.056,3.939,1.056c1.36,0,2.72-0.352,3.939-1.056l218.809-126.329V265.979
	z M470.871,246.723L256,370.778L41.129,246.723l55.165-31.848l155.768,89.931c1.218,0.704,2.579,1.056,3.939,1.056
	c1.36,0,2.72-0.352,3.939-1.056l155.767-89.931L470.871,246.723z M478.748,160.285L256,288.887L33.252,160.285v-5.612
	l218.809,126.328c1.218,0.704,2.579,1.056,3.939,1.056c1.36,0,2.72-0.352,3.939-1.056l218.809-126.329V160.285z"/>
<g>
</g>
<g>
</g>
<g>
</g>
<g>
</g>
<g>
</g>
<g>
</g>
<g>
</g>
<g>
</g>
<g>
</g>
<g>
</g>
<g>
</g>
<g>
</g>
<g>
</g>
<g>
</g>
<g>
</g>
</svg>
