<?xml version="1.0" ?><svg enable-background="new 0 0 512 512" id="Layer_1" version="1.1" viewBox="0 0 512 512" xml:space="preserve" xmlns="http://www.w3.org/2000/svg" xmlns:xlink="http://www.w3.org/1999/xlink"><g><g><linearGradient gradientUnits="userSpaceOnUse" id="SVGID_1_" x1="-0.0000027" x2="512" y1="256" y2="256"><stop offset="0" style="stop-color:#33B49D"/><stop offset="1" style="stop-color:#00A185"/></linearGradient><circle cx="256" cy="256" fill="url(#SVGID_1_)" r="256"/><linearGradient gradientUnits="userSpaceOnUse" id="SVGID_2_" x1="42.6666641" x2="469.3333435" y1="256.0005188" y2="256.0005188"><stop offset="0" style="stop-color:#00A185"/><stop offset="1" style="stop-color:#33B49D"/></linearGradient><path d="M256,469.3338623c-117.6315308,0-213.3333435-95.7018738-213.3333435-213.3333435    c0-117.6309204,95.7018051-213.333313,213.3333435-213.333313c117.6362,0,213.3333435,95.7024002,213.3333435,213.333313    C469.3333435,373.6319885,373.6362,469.3338623,256,469.3338623z" fill="url(#SVGID_2_)"/></g><polygon id="XMLID_80_" opacity="0.3" points="248.4991455,159.5013275 144,264 248.4991455,368.4992065 248.4991455,313.078949    384,313.078949 384,214.9221344 248.4991455,214.9221344  "/><polygon fill="#FFFFFF" id="XMLID_201_" points="240.4991455,151.5013275 136,256 240.4991455,360.4992065 240.4991455,305.078949    376,305.078949 376,206.9221344 240.4991455,206.9221344  "/></g></svg>