<?xml version="1.0" ?><!DOCTYPE svg  PUBLIC '-//W3C//DTD SVG 1.1//EN'  'http://www.w3.org/Graphics/SVG/1.1/DTD/svg11.dtd'><svg enable-background="new 0 0 300 300" height="300px" id="Layer_1" version="1.1" viewBox="0 0 300 300" width="300px" xml:space="preserve" xmlns="http://www.w3.org/2000/svg" xmlns:xlink="http://www.w3.org/1999/xlink"><g><path d="M150.518,14.797c-74.561,0-135,60.442-135,135c0,74.561,60.439,135,135,135c74.556,0,135-60.439,135-135   C285.518,75.24,225.073,14.797,150.518,14.797z M150.518,265.708c-64.017,0-115.912-51.897-115.912-115.91   c0-64.014,51.895-115.909,115.912-115.909c64.014,0,115.909,51.895,115.909,115.909   C266.427,213.811,214.531,265.708,150.518,265.708z" fill="#334E61"/><circle cx="150.516" cy="149.798" fill="#334E61" r="104.428"/><g><polygon fill="#FFFFFF" points="109.722,205.66 92.256,210.906 96.447,193.147 100.638,175.393 113.919,187.91 127.198,200.416       "/><polygon fill="#FFFFFF" points="133.376,194.11 106.716,169.1 182.121,88.691 208.779,113.704   "/></g></g></svg>