<?xml version="1.0" ?><!DOCTYPE svg  PUBLIC '-//W3C//DTD SVG 1.1//EN'  'http://www.w3.org/Graphics/SVG/1.1/DTD/svg11.dtd'><svg height="176.389mm" style="shape-rendering:geometricPrecision; text-rendering:geometricPrecision; image-rendering:optimizeQuality; fill-rule:evenodd; clip-rule:evenodd" version="1.1" viewBox="0 0 17639 17639" width="176.389mm" xml:space="preserve" xmlns="http://www.w3.org/2000/svg" xmlns:xlink="http://www.w3.org/1999/xlink"><defs><style type="text/css">
   <![CDATA[
    .fil0 {fill:#2E7237}
   ]]>
  </style></defs><g id="Layer_x0020_1"><g id="_784529504"><path class="fil0" d="M3530 12768l0 -7897 6105 -1105 0 10107 -6105 -1105zm6348 -7688l4198 0 1 7549 -4199 0 0 -1975 1051 943 1151 -1132 -1155 -1215 -1050 919 3 -3219 2399 0 0 1552 -882 0 1162 1203 1131 -1203 -847 0 0 -2152 -2963 0 0 -1270zm-7797 10513l13476 0 0 -13475 -13476 -1 0 13476z"/><path class="fil0" d="M6315 7726c442,-16 702,5 713,514 -1,495 -245,553 -711,553l-2 -1067zm-600 -600l0 3422 597 44 8 -1193c890,8 1381,-300 1381,-1211 -9,-1367 -1031,-1103 -1986,-1062z"/></g></g></svg>