<?xml version="1.0" encoding="iso-8859-1"?>
<!-- Generator: Adobe Illustrator 19.0.0, SVG Export Plug-In . SVG Version: 6.00 Build 0)  -->
<svg version="1.1" id="Capa_1" xmlns="http://www.w3.org/2000/svg" xmlns:xlink="http://www.w3.org/1999/xlink" x="0px" y="0px"
	 viewBox="0 0 512 512" style="enable-background:new 0 0 512 512;" xml:space="preserve">
<path style="fill:#4D5578;" d="M470.14,84.14l-68.28-68.28c-3.75-3.75-8.84-5.86-14.14-5.86C370.88,10,75.582,10,56,10
	c-11.05,0-20,8.95-20,20v452c0,11.05,8.95,20,20,20c20.476,0,339.108,0,400,0c11.05,0,20-8.95,20-20V98.28
	C476,92.98,473.89,87.89,470.14,84.14z"/>
<rect x="96" y="442" style="fill:#FF5249;" width="320" height="60"/>
<g>
	<path style="fill:#FFFFFF;" d="M416,282v160H96V282c0-11.05,8.95-20,20-20h280C407.05,262,416,270.95,416,282z"/>
	<path style="fill:#FFFFFF;" d="M376,10v120c0,11.05-8.95,20-20,20H156c-11.05,0-20-8.95-20-20V10C148.642,10,364.035,10,376,10z"/>
</g>
<rect x="276" y="10" style="fill:#4D5578;" width="40" height="100"/>
<path d="M156,332c5.52,0,10-4.48,10-10s-4.48-10-10-10s-10,4.48-10,10S150.48,332,156,332z"/>
<path d="M26,30v452c0,16.542,13.458,30,30,30c20.476,0,339.108,0,400,0c16.542,0,30-13.458,30-30V98.28
	c0-7.895-3.203-15.626-8.789-21.212L408.932,8.789C403.346,3.203,395.614,0,387.72,0H56C39.458,0,26,13.458,26,30z M406,432H106V282
	c0-5.514,4.486-10,10-10h280c5.514,0,10,4.486,10,10V432z M106,452h300v40H106V452z M394.789,22.932l68.279,68.279
	C464.932,93.073,466,95.65,466,98.28V482c0,5.514-4.486,10-10,10h-30V282c0-16.542-13.458-30-30-30H116c-16.542,0-30,13.458-30,30
	v210H56c-5.514,0-10-4.486-10-10V30c0-5.514,4.486-10,10-10h70v110c0,16.542,13.458,30,30,30h200c16.542,0,30-13.458,30-30V20h1.72
	C390.35,20,392.927,21.068,394.789,22.932z M286,20h20v80h-20V20z M276,120h40c5.522,0,10-4.478,10-10V20h40v110
	c0,5.514-4.486,10-10,10H156c-5.514,0-10-4.486-10-10V20h120v90C266,115.522,270.478,120,276,120z"/>
<path d="M356,312H196c-5.522,0-10,4.478-10,10s4.478,10,10,10h160c5.522,0,10-4.478,10-10S361.522,312,356,312z"/>
<path d="M356,372H156c-5.522,0-10,4.478-10,10s4.478,10,10,10h200c5.522,0,10-4.478,10-10S361.522,372,356,372z"/>
<g>
</g>
<g>
</g>
<g>
</g>
<g>
</g>
<g>
</g>
<g>
</g>
<g>
</g>
<g>
</g>
<g>
</g>
<g>
</g>
<g>
</g>
<g>
</g>
<g>
</g>
<g>
</g>
<g>
</g>
</svg>
