<svg height="492pt" viewBox="0 -10 492.0097 492" width="492pt" xmlns="http://www.w3.org/2000/svg"><path d="m407.035156 427.035156v-36.980468h77.289063v73.949218h-77.289063zm0 0" fill="#00acea"/><path d="m445.683594 81.953125h-38.648438v-73.949219h77.289063v73.949219zm0 0" fill="#00acea"/><path d="m445.683594 389.925781v.128907h-38.648438v36.980468h-322.058594v-36.980468h-38.652343v-308.101563h38.652343v-36.976563h322.058594v36.976563h38.648438zm-205.828125-41.632812 52.199219-158.339844-158.339844 52.203125 35.328125 35.339844-39.15625 39.457031 35.167969 35.171875 39.460937-39.160156zm0 0" fill="#00efd1"/><path d="m292.054688 189.953125-52.199219 158.339844-35.339844-35.328125-39.460937 39.160156-35.167969-35.171875 39.15625-39.457031-35.328125-35.339844zm0 0" fill="#00acea"/><path d="m84.976562 427.035156v36.96875h-77.292968v-73.949218h77.292968zm0 0" fill="#00acea"/><path d="m46.324219 81.953125h-38.640625v-73.949219h77.292968v73.949219zm0 0" fill="#00acea"/><g fill="#083863"><path d="m289.550781 182.359375-158.339843 52.199219c-2.636719.867187-4.636719 3.042968-5.277344 5.746094-.644532 2.703124.160156 5.542968 2.125 7.507812l29.699218 29.703125-33.546874 33.800781c-3.105469 3.128906-3.09375 8.175782.019531 11.292969l35.171875 35.167969c3.117187 3.117187 8.164062 3.125 11.292968.023437l33.796876-33.546875 29.703124 29.699219c1.960938 1.964844 4.804688 2.769531 7.507813 2.125 2.699219-.644531 4.875-2.640625 5.746094-5.277344l52.199219-158.339843c.941406-2.867188.191406-6.023438-1.941407-8.160157-2.136719-2.132812-5.292969-2.886719-8.160156-1.941406zm-53.226562 151.09375-26.152344-26.148437c-3.117187-3.113282-8.164063-3.125-11.292969-.019532l-33.800781 33.546875-23.898437-23.902343 33.546874-33.800782c3.101563-3.125 3.09375-8.171875-.023437-11.289062l-26.144531-26.152344 130.929687-43.164062zm0 0"/><path d="m317.695312 172.316406c2.121094 0 4.160157-.84375 5.65625-2.34375l19.042969-19.039062c3.121094-3.125 3.121094-8.191406-.003906-11.316406-3.121094-3.125-8.1875-3.125-11.3125 0l-19.039063 19.039062c-2.289062 2.289062-2.972656 5.730469-1.734374 8.71875 1.238281 2.992188 4.15625 4.941406 7.390624 4.941406zm0 0"/><path d="m323.351562 243.167969c-3.121093-3.125-8.1875-3.125-11.3125 0s-3.125 8.1875 0 11.3125l19.039063 19.042969c3.125 3.121093 8.191406 3.121093 11.316406-.003907s3.125-8.191406 0-11.316406zm0 0"/><path d="m227.527344 169.972656c3.125 3.125 8.1875 3.125 11.3125 0s3.125-8.191406.003906-11.316406l-19.042969-19.039062c-3.125-3.125-8.1875-3.125-11.3125 0s-3.125 8.191406 0 11.316406zm0 0"/><path d="m275.003906 154.804688c4.417969 0 8-3.582032 8-8v-26.917969c0-4.421875-3.582031-8-8-8-4.417968 0-8 3.578125-8 8v26.917969c0 4.417968 3.582032 8 8 8zm0 0"/><path d="m362.125 199.003906h-26.921875c-4.417969 0-8 3.582032-8 8 0 4.417969 3.582031 8 8 8h26.921875c4.417969 0 8-3.582031 8-8 0-4.417968-3.582031-8-8-8zm0 0"/><path d="m484.324219 90.003906c2.09375-.023437 4.089843-.890625 5.535156-2.40625s2.21875-3.550781 2.144531-5.644531v-73.949219c.074219-2.085937-.703125-4.113281-2.148437-5.621094-1.445313-1.507812-3.441407-2.3632808-5.53125-2.37890575h-77.289063c-4.425781 0-8.015625 3.57812475-8.03125 7.99999975v29h-306v-29c-.011718-4.421875-3.605468-7.99999975-8.027344-7.99999975h-77.292968c-2.085938.01562495-4.082032.87109375-5.527344 2.37890575-1.449219 1.507813-2.2226562 3.535157-2.15234375 5.621094v73.949219c-.07421875 2.09375.69921875 4.128906 2.14453175 5.644531 1.445312 1.515625 3.441406 2.382813 5.535156 2.40625h30.320312v292h-30.320312c-2.09375.027344-4.089844.894532-5.535156 2.410156-1.445313 1.515626-2.2187505 3.546876-2.14453175 5.640626v73.949218c-.07031245 2.089844.70312475 4.117188 2.15234375 5.625 1.445312 1.503906 3.441406 2.363282 5.527344 2.375h77.292968c4.421876.003906 8.015626-3.574218 8.027344-8v-29h306v29c.015625 4.425782 3.605469 8.003906 8.03125 8h77.289063c2.089843-.011718 4.085937-.871094 5.53125-2.375 1.445312-1.507812 2.222656-3.535156 2.148437-5.625v-73.949218c.074219-2.09375-.699218-4.125-2.144531-5.640626-1.445313-1.515624-3.441406-2.382812-5.535156-2.410156h-30.320313v-292zm-69.320313-74h61v58h-61zm-399 0h61v58h-61zm61 440h-61v-58h61zm399 0h-61v-58h61zm-38-74h-30.96875c-4.433594.023438-8.019531 3.617188-8.03125 8.050782v28.949218h-306v-28.949218c-.007812-4.433594-3.59375-8.027344-8.027344-8.050782h-30.972656v-292h30.972656c4.433594-.019531 8.019532-3.613281 8.027344-8.050781v-28.949219h306v28.949219c.011719 4.4375 3.597656 8.03125 8.03125 8.050781h30.96875zm0 0"/></g></svg>