<?xml version="1.0" encoding="iso-8859-1"?>
<!-- Generator: Adobe Illustrator 19.0.0, SVG Export Plug-In . SVG Version: 6.00 Build 0)  -->
<svg version="1.1" id="Capa_1" xmlns="http://www.w3.org/2000/svg" xmlns:xlink="http://www.w3.org/1999/xlink" x="0px" y="0px"
	 viewBox="0 0 512 512" style="enable-background:new 0 0 512 512;" xml:space="preserve">
<g>
	<g>
		<path d="M161,191v130h190V191H161z M321,291H191v-70h130V291z"/>
	</g>
</g>
<g>
	<g>
		<path d="M161,0v130h190V0H161z M321,100H191V30h130V100z"/>
	</g>
</g>
<g>
	<g>
		<path d="M161,382v130h190V382H161z M321,482H191v-70h130V482z"/>
	</g>
</g>
<g>
	<g>
		<polygon points="422.212,50 439.032,33.18 417.819,11.967 364.786,65 417.819,118.033 439.032,96.82 422.212,80 471,80 471,241 
			395.999,241 395.999,271 501,271 501,50 		"/>
	</g>
</g>
<g>
	<g>
		<polygon points="94.181,393.967 72.968,415.18 89.788,432 41,432 41,271 116.001,271 116.001,241 11,241 11,462 89.788,462 
			72.968,478.82 94.181,500.033 147.214,447 		"/>
	</g>
</g>
<g>
</g>
<g>
</g>
<g>
</g>
<g>
</g>
<g>
</g>
<g>
</g>
<g>
</g>
<g>
</g>
<g>
</g>
<g>
</g>
<g>
</g>
<g>
</g>
<g>
</g>
<g>
</g>
<g>
</g>
</svg>
