<?xml version="1.0" encoding="iso-8859-1"?>
<!-- Generator: Adobe Illustrator 19.0.0, SVG Export Plug-In . SVG Version: 6.00 Build 0)  -->
<svg version="1.1" id="Capa_1" xmlns="http://www.w3.org/2000/svg" xmlns:xlink="http://www.w3.org/1999/xlink" x="0px" y="0px"
	 viewBox="0 0 480 480" style="enable-background:new 0 0 480 480;" xml:space="preserve">
<g>
	<g>
		<path d="M424,256h-96c-4.418,0-8,3.582-8,8v16h-21.84L248,251.36V224h40c4.418,0,8-3.582,8-8v-48c0-4.418-3.582-8-8-8h-40v-32h16
			c17.673,0,32-14.327,32-32s-14.327-32-32-32h-48c-17.673,0-32,14.327-32,32s14.327,32,32,32h16v32h-40c-4.418,0-8,3.582-8,8v16
			h-24v-16c0-4.418-3.582-8-8-8H56c-4.418,0-8,3.582-8,8v48c0.014,2.676,1.365,5.168,3.6,6.64l2.8,1.92
			c8.538,5.658,18.558,8.664,28.8,8.64c8.027,0.027,15.947-1.837,23.12-5.44c4.971-2.473,10.448-3.76,16-3.76H152
			c4.418,0,8-3.582,8-8v-16h24v16c0,4.418,3.582,8,8,8h40v27.36l-52,29.68c-3.844,2.178-5.194,7.06-3.016,10.904
			c0.714,1.26,1.756,2.302,3.016,3.016l52,29.68V368h-16c-17.673,0-32,14.327-32,32c0,17.673,14.327,32,32,32h48
			c17.673,0,32-14.327,32-32c0-17.673-14.327-32-32-32h-16v-16h128c4.418,0,8-3.582,8-8v-24h40c4.418,0,8-3.582,8-8v-48
			C432,259.582,428.418,256,424,256z M144,208h-21.68c-8.021,0.023-15.93,1.884-23.12,5.44c-11.231,5.621-24.586,4.954-35.2-1.76
			V176h80V208z M216,112c-8.837,0-16-7.163-16-16s7.163-16,16-16h48c8.837,0,16,7.163,16,16s-7.163,16-16,16H216z M200,208v-32h80
			v32H200z M264,384c8.837,0,16,7.163,16,16s-7.163,16-16,16h-48c-8.837,0-16-7.163-16-16s7.163-16,16-16H264z M240,310.8L200,288
			l40-22.8l40,22.8L240,310.8z M368,336H248v-11.36L298.16,296H320v16c0,4.418,3.582,8,8,8h40V336z M416,304h-80v-32h80V304z"/>
	</g>
</g>
<g>
	<g>
		<rect x="48" y="64" width="88" height="16"/>
	</g>
</g>
<g>
	<g>
		<rect x="48" y="96" width="64" height="16"/>
	</g>
</g>
<g>
	<g>
		<path d="M472,48c4.418,0,8-3.582,8-8V8c0-4.418-3.582-8-8-8H8C3.582,0,0,3.582,0,8v32c0,4.418,3.582,8,8,8h8v416H0v16h480v-16h-16
			V48H472z M448,464H32V48h416V464z M16,32V16h448v16H16z"/>
	</g>
</g>
<g>
	<g>
		<rect x="320" y="432" width="16" height="16"/>
	</g>
</g>
<g>
	<g>
		<rect x="352" y="432" width="16" height="16"/>
	</g>
</g>
<g>
	<g>
		<rect x="384" y="432" width="16" height="16"/>
	</g>
</g>
<g>
	<g>
		<rect x="416" y="432" width="16" height="16"/>
	</g>
</g>
<g>
</g>
<g>
</g>
<g>
</g>
<g>
</g>
<g>
</g>
<g>
</g>
<g>
</g>
<g>
</g>
<g>
</g>
<g>
</g>
<g>
</g>
<g>
</g>
<g>
</g>
<g>
</g>
<g>
</g>
</svg>
