<svg width="16.000002720286137" height="16.000002720286137" xmlns="http://www.w3.org/2000/svg">

 <g>
  <title>background</title>
  <rect height="402" width="582" y="-1" x="-1" fill="none" id="canvas_background"/>
 </g>
 <g>
  <title>Layer 1</title>
  <path d="m14,4c1.105,0 2,-0.895 2,-2c0,-1.105 -0.895,-2 -2,-2s-2,0.895 -2,2c0,0.562 0.233,1.068 0.606,1.431l-1.578,2.761c-0.322,-0.118 -0.665,-0.192 -1.028,-0.192c-0.8,0 -1.523,0.318 -2.061,0.829l-4.091,-3.068c0.097,-0.235 0.152,-0.491 0.152,-0.761c0,-1.105 -0.895,-2 -2,-2s-2,0.895 -2,2c0,1.105 0.895,2 2,2c0.472,0 0.9,-0.17 1.242,-0.443l4.102,3.077c-0.213,0.411 -0.344,0.871 -0.344,1.366c0,0.313 0.062,0.61 0.151,0.894l-4.291,2.307c-0.262,-0.125 -0.551,-0.201 -0.86,-0.201c-1.105,0 -2,0.895 -2,2c0,1.105 0.895,2 2,2s2,-0.895 2,-2c0,-0.406 -0.123,-0.783 -0.331,-1.099l3.933,-2.115c0.547,0.733 1.413,1.214 2.398,1.214c0.498,0 0.961,-0.133 1.375,-0.348l0.977,1.217c-0.221001,0.322 -0.352,0.710999 -0.352,1.131c0,1.105 0.895,2 2,2s2,-0.895 2,-2c0,-1.105 -0.895,-2 -2,-2c-0.321,0 -0.62,0.083 -0.889,0.217l-0.934,-1.164c0.507,-0.537001 0.823,-1.256001 0.823,-2.053c0,-0.934 -0.436,-1.758 -1.105,-2.308l1.582999,-2.77c0.167001,0.046 0.34,0.078 0.522,0.078z" fill="#55b5b5" id="svg_1"/>
 </g>
</svg>