<?xml version="1.0" ?><!DOCTYPE svg  PUBLIC '-//W3C//DTD SVG 1.1//EN'  'http://www.w3.org/Graphics/SVG/1.1/DTD/svg11.dtd'><svg enable-background="new 0 0 300 300" height="300px" id="Layer_1" version="1.1" viewBox="0 0 300 300" width="300px" xml:space="preserve" xmlns="http://www.w3.org/2000/svg" xmlns:xlink="http://www.w3.org/1999/xlink"><g><path d="M150.841,15.398c-74.56,0-134.998,60.438-134.998,134.999c0,74.558,60.438,135.001,134.998,135.001   c74.563,0,135.002-60.443,135.002-135.001C285.844,75.836,225.404,15.398,150.841,15.398z M150.841,266.313   c-64.016,0-115.91-51.905-115.91-115.915c0-64.017,51.894-115.908,115.91-115.908c64.02,0,115.912,51.891,115.912,115.908   C266.753,214.407,214.861,266.313,150.841,266.313z" fill="#6A8A4B"/><path d="M255.267,150.397c0,57.681-46.746,104.429-104.421,104.429c-57.677,0-104.428-46.748-104.428-104.429   c0-57.674,46.75-104.426,104.428-104.426C208.521,45.972,255.267,92.723,255.267,150.397z" fill="#6A8A4B"/><polygon fill="#FFFFFF" points="195.498,146.455 195.498,197.747 175.782,197.747 175.782,169.553 153.288,169.553    153.288,197.747 108.143,197.747 108.143,146.455 93.146,146.455 151.819,103.052 208.541,146.455  "/></g></svg>