<?xml version="1.0" ?><!DOCTYPE svg  PUBLIC '-//W3C//DTD SVG 1.1//EN'  'http://www.w3.org/Graphics/SVG/1.1/DTD/svg11.dtd'><svg enable-background="new 0 0 300 300" height="300px" id="Layer_1" version="1.1" viewBox="0 0 300 300" width="300px" xml:space="preserve" xmlns="http://www.w3.org/2000/svg" xmlns:xlink="http://www.w3.org/1999/xlink"><g><path d="M151.121,14.934c-74.557,0-134.996,60.439-134.996,135c0,74.553,60.439,135,134.996,135   c74.561,0,135.004-60.447,135.004-135C286.125,75.373,225.682,14.934,151.121,14.934z M151.121,265.843   c-64.013,0-115.91-51.9-115.91-115.909c0-64.016,51.897-115.906,115.91-115.906c64.018,0,115.909,51.89,115.909,115.906   C267.03,213.942,215.139,265.843,151.121,265.843z" fill="#EFC849"/><circle cx="151.127" cy="149.934" fill="#EFC849" r="104.43"/><polygon fill="#FFFFFF" points="160.254,102.705 160.254,127.442 223.81,127.442 223.81,172.429 160.254,172.429 160.254,197.166    117.144,172.429 116.951,172.429 116.951,172.321 78.446,150.23 116.951,127.864 116.951,127.45 117.668,127.45  "/></g></svg>