<?xml version="1.0" ?><svg clip-rule="evenodd" fill-rule="evenodd" image-rendering="optimizeQuality" shape-rendering="geometricPrecision" text-rendering="geometricPrecision" viewBox="0 0 500 500" xmlns="http://www.w3.org/2000/svg"><defs><linearGradient gradientUnits="userSpaceOnUse" id="a" x1="362.554" x2="47" y1="227.99" y2="227.99"><stop offset="0" stop-color="#008BFF"/><stop offset="1" stop-color="#0af"/></linearGradient></defs><g><rect fill="#D5D6D6" height="389" rx="23" ry="22" width="250" x="210" y="35"/><path d="M293 35h144c13 0 23 10 23 23v327c0 13-11 26-23 23l-144-35c-12-3-23-10-23-23v-292c0-13 10-23 23-23z" fill="#f5f5f5" stroke="#434242" stroke-width="10"/><rect fill="none" height="389" rx="23" ry="22" stroke="#434242" stroke-width="30" width="250" x="210" y="35"/><path d="M359 236l-95 73c-4 2-7 3-11 1-3-2-6-5-6-9v-42h-190c-5 0-10-5-10-10v-40c0-5 4-10 10-10h190v-44c0-4 3-7 6-9 4-2 7-1 11 1l95 73c2 2 4 5 4 8s-2 6-4 8z" fill="url(#a)" stroke="#434242" stroke-width="10"/></g></svg>