<?xml version="1.0" encoding="iso-8859-1"?>
<!-- Generator: Adobe Illustrator 19.0.0, SVG Export Plug-In . SVG Version: 6.00 Build 0)  -->
<svg xmlns="http://www.w3.org/2000/svg" xmlns:xlink="http://www.w3.org/1999/xlink" version="1.1" id="Layer_1" x="0px" y="0px" viewBox="0 0 512.476 512.476" style="enable-background:new 0 0 512.476 512.476;" xml:space="preserve" width="512" height="512">
<linearGradient id="SVGID_1_" gradientUnits="userSpaceOnUse" x1="256.2378" y1="5.297807e-009" x2="256.2378" y2="512.4756">
	<stop offset="0" style="stop-color:#2AF598"/>
	<stop offset="1" style="stop-color:#009EFD"/>
</linearGradient>
<path style="fill:url(#SVGID_1_);" d="M438.238,187.642V158h-44v45h29.642l-49.642,73.284L324.596,203h29.642v-45h-45v29.642  L235.954,138l73.284-49.642V118h45V73h-29.642l49.642-73l49.642,73h-29.642v45h44V88.358l74,49.642L438.238,187.642z M357.743,304  h-149l74.158,157.703l-109.77,50.772L98.066,353.831L0.238,463.446V0.815L357.743,304z M145.732,264h103L40.238,87.185v271.369  l68.172-76.385l83.919,177.356l37.246-17.228L145.732,264z"/>















</svg>
