<svg width="63.99999627217999" height="63.99999627217999" xmlns="http://www.w3.org/2000/svg">

 <g>
  <title>background</title>
  <rect height="402" width="582" y="-1" x="-1" fill="none" id="canvas_background"/>
 </g>
 <g>
  <title>Layer 1</title>
  <path d="m32,43.299988c-6.199997,0 -11.300003,-5.100006 -11.300003,-11.299988s5.100006,-11.300018 11.300003,-11.300018s11.300003,5.100006 11.300003,11.300018s-5.100006,11.299988 -11.300003,11.299988l0,0zm0,-20.199982c-4.899994,0 -8.899994,4 -8.899994,8.899994s4,8.900024 8.899994,8.900024s8.899994,-4 8.899994,-8.900024s-4,-8.899994 -8.899994,-8.899994l0,0z" fill="#0c73ef" id="Fill-45" class="st0"/>
  <path d="m35.399994,55.899994l-6.800003,0l-1.899994,-5.800018c-1.300003,-0.399994 -2.5,-0.899994 -3.700012,-1.5l-5.5,2.800018l-4.799988,-4.800018l2.799988,-5.5c-0.599991,-1.199982 -1.199997,-2.399994 -1.5,-3.699982l-5.799988,-1.899994l0,-6.800018l5.799988,-1.899994c0.400009,-1.299988 0.900009,-2.5 1.5,-3.700012l-2.799988,-5.5l4.799988,-4.799988l5.5,2.799988c1.200012,-0.599976 2.400009,-1.199982 3.700012,-1.5l1.899994,-5.799988l6.800003,0l1.899994,5.799988c1.300003,0.400024 2.5,0.900024 3.699997,1.5l5.5,-2.799988l4.800003,4.799988l-2.800003,5.5c0.600006,1.200012 1.200012,2.400024 1.5,3.700012l5.800003,1.899994l0,6.800018l-5.800003,1.899994c-0.399994,1.299988 -0.899994,2.5 -1.5,3.699982l2.800003,5.5l-4.800003,4.800018l-5.5,-2.800018c-1.199997,0.600006 -2.399994,1.200012 -3.699997,1.5l-1.899994,5.800018l0,0zm-5.099991,-2.299988l3.399994,0l1.800003,-5.399994l0.600006,-0.200012c1.5,-0.399994 2.899994,-1 4.299988,-1.799988l0.600006,-0.299988l5.100006,2.599976l2.399994,-2.399994l-2.600006,-5.100006l0.300003,-0.599976c0.800003,-1.300018 1.400009,-2.800018 1.800003,-4.300018l0.199997,-0.600006l5.400009,-1.799988l0,-3.399994l-5.400009,-1.800018l-0.199997,-0.599976c-0.399994,-1.5 -1,-3 -1.800003,-4.300018l-0.300003,-0.600006l2.600006,-5.099976l-2.399994,-2.400024l-5.100006,2.600006l-0.600006,-0.299988c-1.299988,-0.800018 -2.799988,-1.399994 -4.299988,-1.800018l-0.600006,-0.199982l-1.800003,-5.399994l-3.399994,0l-1.800003,5.399994l-0.600006,0.199982c-1.5,0.400024 -2.899994,1 -4.299988,1.800018l-0.600006,0.299988l-5.100006,-2.600006l-2.399994,2.400024l2.600006,5.099976l-0.300003,0.600006c-0.800003,1.300018 -1.400009,2.800018 -1.800003,4.300018l-0.199997,0.599976l-5.400009,1.800018l0,3.399994l5.400009,1.799988l0.199997,0.600006c0.399994,1.5 1,3 1.800003,4.300018l0.300003,0.599976l-2.600006,5.100006l2.399994,2.399994l5.100006,-2.599976l0.600006,0.299988c1.299988,0.799988 2.799988,1.399994 4.299988,1.799988l0.600006,0.200012l1.800003,5.399994l0,0z" fill="#0c73ef" id="Fill-46" class="st0"/>
 </g>
</svg>