<svg height="512pt" viewBox="0 -29 512.00052 512" width="512pt" xmlns="http://www.w3.org/2000/svg"><path d="m363.636719 0h-215.273438c-14.550781 0-27.996093 7.761719-35.269531 20.363281l-107.636719 186.433594c-7.277343 12.597656-7.277343 28.125 0 40.726563l107.636719 186.429687c7.273438 12.601563 20.71875 20.363281 35.269531 20.363281h215.273438c14.550781 0 27.996093-7.761718 35.269531-20.363281l107.636719-186.429687c7.277343-12.601563 7.277343-28.125 0-40.726563l-107.636719-186.433594c-7.273438-12.601562-20.71875-20.363281-35.269531-20.363281zm0 0" fill="#e6e6e6"/><path d="m148.992188 412.503906-107.007813-185.34375 107.007813-185.34375h214.015624l107.007813 185.34375-107.007813 185.34375zm0 0" fill="#ff5a73"/><g fill="#fff"><path d="m157.148438 216.042969c-8.179688-3.46875-15.242188-6.464844-15.242188-13.011719 0-6.222656 5.476562-9.9375 14.648438-9.9375 6.800781 0 10.585937 1.945312 13.351562 3.363281 1.746094.898438 3.128906 1.605469 4.691406 1.605469 2.679688 0 4.347656-1.875 5.277344-3.445312 1.222656-2.066407 1.652344-4.363282 1.652344-5.707032 0-8.363281-15.699219-10.59375-24.976563-10.59375-8.40625 0-16.078125 2.058594-21.601562 5.792969-6.835938 4.628906-10.304688 11.523437-10.304688 20.492187 0 17.347657 13.089844 23.160157 24.632813 28.285157 9.304687 4.132812 17.34375 7.703125 17.34375 16.308593 0 5.4375-3.8125 11.246094-14.515625 11.246094-8.113281 0-12.515625-3.695312-16.054688-6.667968-2.261719-1.898438-4.046875-3.402344-6.175781-3.402344-4.1875 0-7.585938 5.621094-7.585938 9.285156 0 3.785156 3.269532 7.921875 8.746094 11.066406 5.933594 3.40625 13.601563 5.28125 21.59375 5.28125 9.1875 0 16.9375-2.492187 22.414063-7.207031 5.785156-4.980469 8.839843-12.347656 8.839843-21.300781 0-20.105469-14.824218-26.398438-26.734374-31.453125zm0 0"/><path d="m249.785156 178.972656h-55.3125c-3.773437 0-5.492187 4-5.492187 7.714844 0 4.617188 2.257812 7.84375 5.492187 7.84375h19.089844v74.800781c0 2.644531 2.699219 5.492188 8.632812 5.492188 4.289063 0 8.628907-1.886719 8.628907-5.492188v-74.800781h18.960937c3.605469 0 5.492188-3.945312 5.492188-7.84375.003906-3.71875-1.714844-7.714844-5.492188-7.714844zm0 0"/><path d="m314.339844 185.785156c-5.253906-4.519531-12.628906-6.816406-21.925782-6.816406-9.28125 0-16.636718 2.292969-21.859374 6.816406-5.886719 5.097656-8.871094 12.925782-8.871094 23.261719v36.484375c0 10.335938 2.984375 18.164062 8.871094 23.261719 5.222656 4.523437 12.578124 6.816406 21.859374 6.816406 9.296876 0 16.671876-2.292969 21.925782-6.816406 5.929687-5.105469 8.9375-12.933594 8.9375-23.261719v-36.484375c0-10.328125-3.007813-18.152344-8.9375-23.261719zm-21.925782 74.65625c-8.9375 0-13.46875-5.015625-13.46875-14.910156v-36.484375c0-9.890625 4.53125-14.90625 13.46875-14.90625 8.898438 0 13.601563 5.152344 13.601563 14.90625v36.484375c0 9.753906-4.703125 14.910156-13.601563 14.910156zm0 0"/><path d="m391.503906 185.671875c-5.082031-4.445313-12.199218-6.703125-21.15625-6.703125h-26.285156c-4.246094 0-6.535156 2.761719-6.535156 5.363281v85c0 2.644531 2.699218 5.492188 8.628906 5.492188 4.289062 0 8.628906-1.886719 8.628906-5.492188v-30.207031h14.515625c19.902344 0 30.863281-10.589844 30.863281-29.816406v-.785156c0-10.136719-2.914062-17.824219-8.660156-22.851563zm-8.601562 24.945313c0 4.933593-1.226563 8.71875-3.640625 11.253906-2.3125 2.425781-5.664063 3.65625-9.957031 3.65625h-14.515626v-31.386719h14.515626c4.292968 0 7.644531 1.230469 9.957031 3.652344 2.417969 2.535156 3.640625 6.320312 3.640625 11.257812zm0 0"/></g></svg>