<?xml version="1.0"?>
<svg xmlns="http://www.w3.org/2000/svg" height="512px" viewBox="0 0 512 512" width="512px"><path d="m286 181c24.8125 0 45 20.1875 45 45 0 8.285156 6.714844 15 15 15s15-6.714844 15-15c0-24.8125 20.1875-45 45-45 8.285156 0 15-6.714844 15-15s-6.714844-15-15-15c-24.8125 0-45-20.1875-45-45 0-8.285156-6.714844-15-15-15s-15 6.714844-15 15c0 24.8125-20.1875 45-45 45-8.285156 0-15 6.714844-15 15s6.714844 15 15 15zm60-30.046875c4.277344 5.699219 9.351562 10.769531 15.046875 15.046875-5.695313 4.28125-10.769531 9.347656-15.046875 15.046875-4.277344-5.699219-9.351562-10.769531-15.046875-15.046875 5.695313-4.28125 10.769531-9.347656 15.046875-15.046875zm0 0" fill="#006DF0"/><path d="m497 271c-24.933594 0-46-20.605469-46-45 0-8.285156-6.714844-15-15-15s-15 6.714844-15 15c0 24.8125-20.1875 45-45 45-8.285156 0-15 6.714844-15 15s6.714844 15 15 15c24.8125 0 45 20.1875 45 45 0 8.285156 6.714844 15 15 15s15-6.714844 15-15c0-24.394531 21.066406-45 46-45 8.285156 0 15-6.714844 15-15s-6.714844-15-15-15zm-53.410156 21.847656c-2.710938 2.648438-5.191406 5.453125-7.4375 8.402344-4.3125-5.78125-9.433594-10.917969-15.199219-15.25 5.765625-4.328125 10.886719-9.46875 15.199219-15.25 2.246094 2.949219 4.726562 5.753906 7.4375 8.402344 2.539062 2.484375 5.21875 4.765625 8.019531 6.847656-2.800781 2.082031-5.480469 4.363281-8.019531 6.847656zm0 0" fill="#006DF0"/><path d="m497 482h-141.691406c-15.898438-32.550781-24.308594-69.144531-24.308594-106v-30c0-24.8125-20.1875-45-45-45s-45-20.1875-45-45v-211c0-24.8125-20.1875-45-45-45s-45 20.1875-45 45v211c0 24.8125-20.1875 45-45 45s-45 20.1875-45 45v30c0 36.5 7.347656 72.808594 21.347656 106h-67.347656c-8.285156 0-15 6.714844-15 15s6.714844 15 15 15h482c8.285156 0 15-6.714844 15-15s-6.714844-15-15-15zm-301-452c8.269531 0 15 6.730469 15 15v196h-30v-196c0-8.269531 6.730469-15 15-15zm-105 316c0-8.269531 6.730469-15 15-15 36.21875 0 66.523438-25.808594 73.492188-60h33.015624c6.96875 34.191406 37.273438 60 73.492188 60 8.269531 0 15 6.730469 15 15v15h-210zm.472656 45h209.945313c1.726562 31.402344 8.851562 62.363281 20.929687 91h-42.058594c-7.183593-14.777344-13.234374-31.851562-17.53125-49.539062-1.953124-8.050782-10.0625-12.992188-18.117187-11.035157-8.046875 1.953125-12.988281 10.066407-11.035156 18.113281 3.582031 14.742188 8.28125 29.15625 13.808593 42.460938h-57.125c-7.183593-14.777344-13.234374-31.851562-17.53125-49.539062-1.953124-8.050782-10.0625-12.992188-18.117187-11.035157-8.046875 1.953125-12.988281 10.066407-11.035156 18.113281 3.582031 14.742188 8.28125 29.15625 13.808593 42.460938h-42.109374c-13.734376-28.128906-21.875-59.273438-23.832032-91zm0 0" fill="#006DF0"/></svg>
